<mxfile host="app.diagrams.net" modified="2023-11-23T03:44:06.392Z" agent="Mozilla/5.0 (Windows NT 10.0; Win64; x64) AppleWebKit/537.36 (KHTML, like Gecko) Chrome/119.0.0.0 Safari/537.36 Edg/119.0.0.0" etag="TZ3GUIFPebcTWqUG1AOZ" version="22.1.3" type="github">
  <diagram name="第 1 页" id="OWYXjZ8L5ZrEfb9kMxQU">
    <mxGraphModel dx="899" dy="571" grid="1" gridSize="10" guides="1" tooltips="1" connect="1" arrows="1" fold="1" page="1" pageScale="1" pageWidth="827" pageHeight="1169" math="0" shadow="0">
      <root>
        <mxCell id="0" />
        <mxCell id="1" parent="0" />
        <mxCell id="TcCRw3NkMHT9nNzst6-l-12" style="rounded=0;orthogonalLoop=1;jettySize=auto;html=1;endArrow=none;endFill=0;" edge="1" parent="1" source="TcCRw3NkMHT9nNzst6-l-1" target="TcCRw3NkMHT9nNzst6-l-2">
          <mxGeometry relative="1" as="geometry" />
        </mxCell>
        <mxCell id="TcCRw3NkMHT9nNzst6-l-13" style="rounded=0;orthogonalLoop=1;jettySize=auto;html=1;endArrow=none;endFill=0;" edge="1" parent="1" source="TcCRw3NkMHT9nNzst6-l-1" target="TcCRw3NkMHT9nNzst6-l-5">
          <mxGeometry relative="1" as="geometry" />
        </mxCell>
        <mxCell id="TcCRw3NkMHT9nNzst6-l-1" value="1" style="ellipse;whiteSpace=wrap;html=1;aspect=fixed;" vertex="1" parent="1">
          <mxGeometry x="320" y="80" width="40" height="40" as="geometry" />
        </mxCell>
        <mxCell id="TcCRw3NkMHT9nNzst6-l-2" value="3" style="ellipse;whiteSpace=wrap;html=1;aspect=fixed;" vertex="1" parent="1">
          <mxGeometry x="240" y="160" width="40" height="40" as="geometry" />
        </mxCell>
        <mxCell id="TcCRw3NkMHT9nNzst6-l-5" value="2" style="ellipse;whiteSpace=wrap;html=1;aspect=fixed;" vertex="1" parent="1">
          <mxGeometry x="400" y="160" width="40" height="40" as="geometry" />
        </mxCell>
        <mxCell id="TcCRw3NkMHT9nNzst6-l-6" value="5" style="ellipse;whiteSpace=wrap;html=1;aspect=fixed;" vertex="1" parent="1">
          <mxGeometry x="200" y="240" width="40" height="40" as="geometry" />
        </mxCell>
        <mxCell id="TcCRw3NkMHT9nNzst6-l-7" value="8" style="ellipse;whiteSpace=wrap;html=1;aspect=fixed;" vertex="1" parent="1">
          <mxGeometry x="280" y="240" width="40" height="40" as="geometry" />
        </mxCell>
        <mxCell id="TcCRw3NkMHT9nNzst6-l-8" value="3" style="ellipse;whiteSpace=wrap;html=1;aspect=fixed;" vertex="1" parent="1">
          <mxGeometry x="360" y="240" width="40" height="40" as="geometry" />
        </mxCell>
        <mxCell id="TcCRw3NkMHT9nNzst6-l-9" value="7" style="ellipse;whiteSpace=wrap;html=1;aspect=fixed;" vertex="1" parent="1">
          <mxGeometry x="440" y="240" width="40" height="40" as="geometry" />
        </mxCell>
        <mxCell id="TcCRw3NkMHT9nNzst6-l-10" value="9" style="ellipse;whiteSpace=wrap;html=1;aspect=fixed;" vertex="1" parent="1">
          <mxGeometry x="160" y="320" width="40" height="40" as="geometry" />
        </mxCell>
        <mxCell id="TcCRw3NkMHT9nNzst6-l-11" value="10" style="ellipse;whiteSpace=wrap;html=1;aspect=fixed;" vertex="1" parent="1">
          <mxGeometry x="240" y="320" width="40" height="40" as="geometry" />
        </mxCell>
        <mxCell id="TcCRw3NkMHT9nNzst6-l-14" style="rounded=0;orthogonalLoop=1;jettySize=auto;html=1;endArrow=none;endFill=0;" edge="1" parent="1" source="TcCRw3NkMHT9nNzst6-l-2" target="TcCRw3NkMHT9nNzst6-l-6">
          <mxGeometry relative="1" as="geometry">
            <mxPoint x="336" y="124" as="sourcePoint" />
            <mxPoint x="284" y="176" as="targetPoint" />
          </mxGeometry>
        </mxCell>
        <mxCell id="TcCRw3NkMHT9nNzst6-l-15" style="rounded=0;orthogonalLoop=1;jettySize=auto;html=1;endArrow=none;endFill=0;" edge="1" parent="1" source="TcCRw3NkMHT9nNzst6-l-2" target="TcCRw3NkMHT9nNzst6-l-7">
          <mxGeometry relative="1" as="geometry">
            <mxPoint x="261" y="208" as="sourcePoint" />
            <mxPoint x="239" y="252" as="targetPoint" />
          </mxGeometry>
        </mxCell>
        <mxCell id="TcCRw3NkMHT9nNzst6-l-16" style="rounded=0;orthogonalLoop=1;jettySize=auto;html=1;endArrow=none;endFill=0;" edge="1" parent="1" source="TcCRw3NkMHT9nNzst6-l-5" target="TcCRw3NkMHT9nNzst6-l-8">
          <mxGeometry relative="1" as="geometry">
            <mxPoint x="279" y="208" as="sourcePoint" />
            <mxPoint x="301" y="252" as="targetPoint" />
          </mxGeometry>
        </mxCell>
        <mxCell id="TcCRw3NkMHT9nNzst6-l-17" style="rounded=0;orthogonalLoop=1;jettySize=auto;html=1;endArrow=none;endFill=0;" edge="1" parent="1" source="TcCRw3NkMHT9nNzst6-l-6" target="TcCRw3NkMHT9nNzst6-l-11">
          <mxGeometry relative="1" as="geometry">
            <mxPoint x="421" y="208" as="sourcePoint" />
            <mxPoint x="399" y="252" as="targetPoint" />
          </mxGeometry>
        </mxCell>
        <mxCell id="TcCRw3NkMHT9nNzst6-l-18" style="rounded=0;orthogonalLoop=1;jettySize=auto;html=1;endArrow=none;endFill=0;" edge="1" parent="1" source="TcCRw3NkMHT9nNzst6-l-6" target="TcCRw3NkMHT9nNzst6-l-10">
          <mxGeometry relative="1" as="geometry">
            <mxPoint x="431" y="218" as="sourcePoint" />
            <mxPoint x="409" y="262" as="targetPoint" />
          </mxGeometry>
        </mxCell>
        <mxCell id="TcCRw3NkMHT9nNzst6-l-19" style="rounded=0;orthogonalLoop=1;jettySize=auto;html=1;endArrow=none;endFill=0;" edge="1" parent="1" source="TcCRw3NkMHT9nNzst6-l-5" target="TcCRw3NkMHT9nNzst6-l-9">
          <mxGeometry relative="1" as="geometry">
            <mxPoint x="441" y="228" as="sourcePoint" />
            <mxPoint x="419" y="272" as="targetPoint" />
          </mxGeometry>
        </mxCell>
      </root>
    </mxGraphModel>
  </diagram>
</mxfile>
